ply
format ascii 1.0
element vertex 60
property float x
property float y
property float z
end_header
208.615 -316.7081 -303.6987
195.3118 -431.5255 -4.748123
169.3171 -283.4673 2.003357
195.9915 -335.249 34.64627
-59.65467 -228.1868 -271.2785
194.2528 -212.0945 -254.9235
109.1396 -255.7843 -192.3488
159.2232 -205.3061 -180.5914
-52.97793 -65.88844 -149.9939
-414.8028 -93.80717 -179.2884
142.4046 -18.04194 -144.1278
122.0803 -253.2515 -78.90041
-221.0379 -8.790291 -136.7613
-270.9627 -82.09055 -166.2303
272.6555 59.69624 -99.32561
40.63873 34.09044 -102.3247
112.0194 101.8715 -103.2134
-24.13611 -67.57914 43.03877
322.4785 -54.47486 19.77578
349.6752 -44.32483 -148.8552
119.8852 -56.73842 87.84476
-98.09797 -4.379848 -141.2965
217.7572 -13.49985 -111.8133
-1.89585 -81.05035 78.11645
11.824 1.615822 -122.5256
18.10154 -11.097 -33.22485
-357.9544 -131.9713 40.39237
67.61183 -152.5309 52.69634
112.2936 84.6573 -48.38065
349.6555 -230.3696 81.3022
132.6508 -203.3221 9.355392
301.4091 380.0539 27.7226
-436.3575 -213.6557 0.5989229
-346.2044 -303.4805 -118.6738
59.52655 26.65537 46.76571
-382.0054 -70.9646 -31.90528
102.9329 150.3901 188.3904
191.3668 -35.26416 110.873
-6.558087 103.3242 162.6394
345.1485 -198.7219 37.21658
332.1117 -28.27418 89.47905
-432.5555 -45.31138 72.58494
337.1074 34.72488 334.6325
23.44353 9.816117 112.5521
267.3233 31.27016 140.1321
395.5774 -246.4785 121.2971
245.465 295.5809 84.41065
368.0653 -176.6522 263.3989
248.355 249.8376 228.0217
82.20441 309.5966 -8.039771
122.0009 331.9753 27.64498
270.0733 338.2357 -2.01612
295.3031 256.411 217.4105
78.71604 240.7519 202.9553
-392.9393 82.41518 134.6014
45.59202 474.5636 75.78505
-449.014 -115.081 35.23104
-444.3883 -85.89271 -8.170193
-349.9968 -235.9471 -16.63116
-396.2971 -18.58557 19.91989
