ply
format ascii 1.0
element vertex 72
property float x
property float y
property float z
end_header
-529.2822 -1308.245 1711.135
199.9255 -935.4499 -516.739
319.6475 -1441.057 1459.465
204.7803 -727.3533 -27.38757
240.2478 -879.5242 -530.2371
724.9536 -1073.956 -201.4581
-37.69895 -875.5609 -225.4904
1367.234 -1242.321 845.7176
329.4612 -793.2499 -77.58405
-852.7794 -1131.271 1525.561
1397.685 -1312.045 1054.963
754.277 -1334.159 1227.775
1615.921 -1176.213 739.6306
580.9608 -701.6061 677.8905
1105.02 -781.2452 -25.46095
-1097.72 -862.0222 1540.402
-365.7549 -411.2766 -309.4174
1567.974 -720.6869 541.0966
637.931 -450.7017 -533.0128
-376.7764 -586.9168 -282.676
345.3377 -876.6003 -270.2006
737.7896 -737.309 -65.96373
1278.56 -859.7209 210.4618
-1452.63 -541.0739 1342.755
221.6332 -485.1035 -251.8456
364.3894 -325.1835 -668.4182
211.7052 -656.2344 -183.8582
-114.9387 -407.9807 -55.03086
269.4301 -310.2657 -5.24266
240.9783 -472.1769 -44.3555
-377.5611 -37.21347 -713.1361
758.2722 -637.4025 -166.8231
1167.089 -627.4628 -286.2486
590.605 -345.1646 -233.0279
-255.6933 -46.49436 -603.5692
-465.1553 -225.094 66.78419
331.6337 -639.264 -257.1756
821.3915 -633.4783 383.6301
353.9447 -667.1082 -399.7751
-341.8619 -25.11113 -541.8206
51.41823 -480.6357 821.7681
-421.856 106.0147 -356.0043
1334.809 -217.2235 135.8685
-357.2742 -38.25668 -200.3551
606.8741 -300.6917 -760.7811
-246.6998 58.69609 212.775
391.2159 -160.3727 255.026
-1411.995 29.17583 728.1268
314.2347 -166.0414 -366.8654
762.2572 -378.1392 -229.0006
779.6125 -1.294733 383.3198
562.5707 -452.137 -119.3672
162.384 -447.0236 73.50589
1389.032 -78.08061 -311.7671
625.2762 -320.3564 32.62701
732.5862 -68.96445 -173.9273
524.0475 23.40653 -218.3601
603.6847 -193.7887 2.81314
1894.746 361.4073 -874.4052
-712.8 114.6508 248.8579
2121.598 -266.4816 -589.4377
-240.4476 271.738 -121.8064
1890.091 -5.925819 30.09721
1708.299 -324.5206 -192.2905
1739.688 193.5541 -672.2527
-1718.895 459.836 315.2096
479.8027 180.6244 -208.2659
-582.7753 482.9551 30.57602
1362.264 695.1647 -1106.256
257.9597 848.3917 -886.1867
-1843.66 622.2304 -0.08770995
-1731.204 1219.744 -659.3827
